<?xml version="1.0" encoding="iso-8859-1"?>
<!-- Generator: Adobe Illustrator 19.0.0, SVG Export Plug-In . SVG Version: 6.00 Build 0)  -->
<svg version="1.1" id="Capa_1" xmlns="http://www.w3.org/2000/svg" xmlns:xlink="http://www.w3.org/1999/xlink" x="0px" y="0px"
	 viewBox="0 0 460 460" style="enable-background:new 0 0 460 460;" xml:space="preserve">
<g>
	<path style="fill:#FFF6D6;" d="M60,230c0-93.74,76.26-170,170-170V0C102.975,0,0,102.975,0,230s102.975,230,230,230v-60
		C136.26,400,60,323.74,60,230z"/>
	<path style="fill:#FFEDAD;" d="M230,0v60c93.74,0,170,76.26,170,170s-76.26,170-170,170v60c127.025,0,230-102.975,230-230
		S357.025,0,230,0z"/>
	<path style="fill:#801B06;" d="M370,230c0,77.196-62.804,140-140,140v30c93.74,0,170-76.26,170-170S323.74,60,230,60v30
		C307.196,90,370,152.804,370,230z"/>
	<path style="fill:#D5310E;" d="M60,230c0,93.74,76.26,170,170,170v-30c-77.196,0-140-62.804-140-140S152.804,90,230,90V60
		C136.26,60,60,136.26,60,230z"/>
	<path style="fill:#F46A1A;" d="M155,230c0-41.355,33.645-75,75-75V90c-77.196,0-140,62.804-140,140s62.804,140,140,140v-65
		C188.645,305,155,271.355,155,230z"/>
	<path style="fill:#D5310E;" d="M370,230c0-77.196-62.804-140-140-140v65c5.397,0,10.658,0.586,15.735,1.674
		c7.151-5.731,16.214-9.17,26.069-9.17c23.03,0,41.766,18.736,41.766,41.766c0,10.25-3.718,19.643-9.867,26.918
		c0.838,4.48,1.296,9.092,1.296,13.812c0,41.355-33.645,75-75,75v65C307.196,370,370,307.196,370,230z"/>
	<path style="fill:#801B06;" d="M155,230c0,41.355,33.645,75,75,75s75-33.645,75-75c0-4.719-0.458-9.332-1.296-13.812
		c-7.667,9.072-19.119,14.847-31.899,14.847c-23.03,0-41.766-18.736-41.766-41.766c0-13.174,6.138-24.935,15.696-32.596
		C240.658,155.586,235.397,155,230,155C188.645,155,155,188.645,155,230z"/>
	<path style="fill:#FFFFFF;" d="M230.039,189.27c0,23.03,18.736,41.766,41.766,41.766c12.78,0,24.231-5.776,31.899-14.847
		c6.149-7.275,9.867-16.669,9.867-26.918c0-23.03-18.736-41.766-41.766-41.766c-9.855,0-18.918,3.439-26.069,9.17
		C236.177,164.335,230.039,176.096,230.039,189.27z"/>
</g>
<g>
</g>
<g>
</g>
<g>
</g>
<g>
</g>
<g>
</g>
<g>
</g>
<g>
</g>
<g>
</g>
<g>
</g>
<g>
</g>
<g>
</g>
<g>
</g>
<g>
</g>
<g>
</g>
<g>
</g>
</svg>
